<?xml version="1.0" encoding="iso-8859-1"?>
<!-- Generator: Adobe Illustrator 19.0.0, SVG Export Plug-In . SVG Version: 6.00 Build 0)  -->
<svg version="1.1" id="Capa_1" xmlns="http://www.w3.org/2000/svg" xmlns:xlink="http://www.w3.org/1999/xlink" x="0px" y="0px"
	 viewBox="0 0 469.333 469.333" style="enable-background:new 0 0 469.333 469.333;" xml:space="preserve">
<path style="fill:#303C42;" d="M53.333,106.667H416c29.417,0,53.333-23.927,53.333-53.333S445.417,0,416,0H53.333
	C23.917,0,0,23.927,0,53.333S23.917,106.667,53.333,106.667z"/>
<path style="fill:#1E88E5;" d="M53.333,21.333H416c17.646,0,32,14.354,32,32s-14.354,32-32,32H53.333c-17.646,0-32-14.354-32-32
	S35.688,21.333,53.333,21.333z"/>
<path style="fill:#303C42;" d="M53.333,288H416c29.417,0,53.333-23.927,53.333-53.333S445.417,181.333,416,181.333H53.333
	C23.917,181.333,0,205.26,0,234.667S23.917,288,53.333,288z"/>
<path style="fill:#1E88E5;" d="M53.333,202.667H416c17.646,0,32,14.354,32,32s-14.354,32-32,32H53.333c-17.646,0-32-14.354-32-32
	S35.688,202.667,53.333,202.667z"/>
<path style="fill:#303C42;" d="M53.333,469.333H416c29.417,0,53.333-23.927,53.333-53.333S445.417,362.667,416,362.667H53.333
	C23.917,362.667,0,386.594,0,416S23.917,469.333,53.333,469.333z"/>
<path style="fill:#1E88E5;" d="M53.333,384H416c17.646,0,32,14.354,32,32c0,17.646-14.354,32-32,32H53.333
	c-17.646,0-32-14.354-32-32C21.333,398.354,35.688,384,53.333,384z"/>
<linearGradient id="SVGID_1_" gradientUnits="userSpaceOnUse" x1="-68.5397" y1="618.9811" x2="-43.5332" y2="607.3209" gradientTransform="matrix(21.3333 0 0 -21.3333 1430.1112 13315.2227)">
	<stop  offset="0" style="stop-color:#FFFFFF;stop-opacity:0.2"/>
	<stop  offset="1" style="stop-color:#FFFFFF;stop-opacity:0"/>
</linearGradient>
<path style="fill:url(#SVGID_1_);" d="M53.333,106.667H416c29.417,0,53.333-23.927,53.333-53.333S445.417,0,416,0H53.333
	C23.917,0,0,23.927,0,53.333S23.917,106.667,53.333,106.667z M416,181.333H53.333C23.917,181.333,0,205.26,0,234.667
	S23.917,288,53.333,288H416c29.417,0,53.333-23.927,53.333-53.333S445.417,181.333,416,181.333z M416,362.667H53.333
	C23.917,362.667,0,386.594,0,416s23.917,53.333,53.333,53.333H416c29.417,0,53.333-23.927,53.333-53.333
	S445.417,362.667,416,362.667z"/>
<g>
</g>
<g>
</g>
<g>
</g>
<g>
</g>
<g>
</g>
<g>
</g>
<g>
</g>
<g>
</g>
<g>
</g>
<g>
</g>
<g>
</g>
<g>
</g>
<g>
</g>
<g>
</g>
<g>
</g>
</svg>
